<svg width="133" height="92" viewBox="0 0 133 92" fill="none" xmlns="http://www.w3.org/2000/svg">
<path d="M105.613 47.8984C106.949 39.2396 109.126 31.026 112.145 23.2578C115.163 15.4401 118.973 8.95833 123.574 3.8125C117.241 5.29688 111.971 7.6224 107.766 10.7891C103.609 13.9062 100.047 17.5924 97.0781 21.8477C95.8411 23.6784 93.9857 26.5977 91.5117 30.6055C89.0378 34.5638 86.2422 39.0911 83.125 44.1875L105.613 47.8984ZM77.1875 48.9375C72.388 48.9375 68.0091 48.8633 64.0508 48.7148C60.1419 48.5169 56.0599 48.2943 51.8047 48.0469C45.7682 48.0469 40.6719 48.3685 36.5156 49.0117C32.3594 49.6549 28.5 50.793 24.9375 52.4258C21.5234 53.4648 18.2578 54.7266 15.1406 56.2109C12.0234 57.6953 9.30208 59.5508 6.97656 61.7773C4.65104 64.0039 3.48828 66.4531 3.48828 69.125C3.48828 71.1536 6.30859 72.4648 11.9492 73.0586C17.5898 73.6029 24.2943 73.875 32.0625 73.875C34.9818 73.875 37.7279 73.8008 40.3008 73.6523C42.8737 73.5039 45.3229 73.2565 47.6484 72.9102C52.151 72.3164 56.2331 71.1289 59.8945 69.3477C63.556 67.5169 66.8216 64.9935 69.6914 61.7773C72.6107 58.5117 75.1094 54.2318 77.1875 48.9375ZM114 48.9375L133 50.125C130.081 52.0052 127.557 53.3411 125.43 54.1328C123.302 54.9245 120.853 55.3203 118.082 55.3203C116.598 55.3203 114.841 55.1719 112.812 54.875C107.568 69.9661 103.956 79.763 101.977 84.2656C99.7995 89.362 97.474 91.9102 95 91.9102L93.8125 91.6133C94.7526 89.4362 95.8164 86.5417 97.0039 82.9297L99.8242 73.207L102.422 62.5938C102.719 61.2578 103.04 59.7982 103.387 58.2148C103.783 56.582 104.178 55.0482 104.574 53.6133L80.6758 50.125C78.8945 55.9141 76.2721 60.862 72.8086 64.9688C69.3451 69.026 65.3867 72.2917 60.9336 74.7656C56.5299 77.2396 51.7552 79.0456 46.6094 80.1836C41.4635 81.3216 36.5651 81.8906 31.9141 81.8906C26.1745 81.8906 20.8802 81.2969 16.0312 80.1094C11.2318 78.8724 7.34766 77.2643 4.37891 75.2852C1.45964 73.306 0 71.2526 0 69.125C0.742188 64.375 3.04297 60.3672 6.90234 57.1016C10.7617 53.7865 15.6602 51.1393 21.5977 49.1602C27.5352 47.181 34.1159 45.7708 41.3398 44.9297C48.6133 44.0391 55.9115 43.5938 63.2344 43.5938C70.112 43.5938 75.5299 43.7917 79.4883 44.1875C83.0013 35.9245 86.1927 29.2695 89.0625 24.2227C91.9323 19.1758 95.2227 14.8711 98.9336 11.3086C102.694 7.69661 107.37 4.97526 112.961 3.14453C118.602 1.26432 125.281 0.324219 133 0.324219C129.24 3.63932 126.147 7.86979 123.723 13.0156C121.298 18.1615 119.294 23.8268 117.711 30.0117C117.068 32.6341 116.424 35.5781 115.781 38.8438C115.138 42.0599 114.544 45.4245 114 48.9375Z" fill="#BDC3AF"/>
</svg>
