<svg aria-hidden="true" style="position: absolute; width: 0; height: 0; overflow: hidden;" version="1.1" xmlns="http://www.w3.org/2000/svg" xmlns:xlink="http://www.w3.org/1999/xlink">
<defs>

<!-- user -->
<symbol id="icon-user" viewBox="0 0 30 32">
    <path d="M15.238 16c4.208 0 7.619-3.411 7.619-7.619s-3.411-7.619-7.619-7.619c-4.208 0-7.619 3.411-7.619 7.619s3.411 7.619 7.619 7.619z"></path>
    <path d="M20.372 18.54h-10.268c-1.669 0.002-3.269 0.666-4.449 1.846s-1.844 2.78-1.846 4.449v1.832c0 2.525 2.047 4.571 4.571 4.571h13.714c2.525 0 4.571-2.047 4.571-4.571v-1.832c-0.002-1.669-0.666-3.269-1.846-4.449s-2.78-1.844-4.449-1.846z"></path>
</symbol>

<!-- arrow -->
<symbol id="icon-arrowRight" viewBox="0 0 32 32">
    <path d="M24.357 13.367l-4.781-4.781c-0.375-0.375-0.884-0.586-1.414-0.585s-1.039 0.211-1.414 0.586c-0.375 0.375-0.586 0.884-0.585 1.414s0.211 1.039 0.586 1.414l3.252 3.252h-11.724c-0.53 0-1.039 0.211-1.414 0.586s-0.586 0.884-0.586 1.414c0 0.531 0.211 1.039 0.586 1.414s0.884 0.586 1.414 0.586h11.724l-3.252 3.252c-0.375 0.375-0.586 0.884-0.586 1.414s0.211 1.039 0.585 1.414c0.375 0.375 0.884 0.586 1.414 0.586s1.039-0.211 1.414-0.586l4.781-4.781c0.874-0.876 1.364-2.063 1.364-3.3s-0.491-2.424-1.364-3.3z"></path>
</symbol>

<symbol id="icon-doubleLeftArrow" viewBox="0 0 29 32">
    <path fill="#872330" style="fill: var(--color1, #872330)" d="M15.032 1.089c0.112-0.115 0.245-0.206 0.392-0.268s0.306-0.094 0.466-0.094c0.16 0 0.318 0.032 0.466 0.094s0.281 0.153 0.392 0.268c0.229 0.235 0.357 0.55 0.357 0.878s-0.128 0.643-0.357 0.878l-12.824 13.153 12.824 13.155c0.115 0.118 0.207 0.258 0.268 0.411s0.092 0.317 0.090 0.483-0.036 0.328-0.101 0.48c-0.065 0.152-0.159 0.29-0.278 0.405-0.113 0.11-0.246 0.197-0.392 0.255s-0.302 0.088-0.46 0.086c-0.157-0.002-0.313-0.035-0.458-0.097s-0.276-0.152-0.385-0.265l-13.637-13.995c-0.24-0.246-0.374-0.575-0.374-0.918s0.134-0.673 0.374-0.918l13.637-13.989zM25.558 1.089c0.112-0.115 0.245-0.206 0.392-0.268s0.306-0.094 0.466-0.094 0.318 0.032 0.466 0.094c0.147 0.062 0.281 0.153 0.392 0.268 0.229 0.235 0.357 0.55 0.357 0.878s-0.128 0.643-0.357 0.878l-12.824 13.153 12.824 13.155c0.115 0.118 0.206 0.258 0.268 0.411s0.092 0.317 0.090 0.483-0.036 0.328-0.101 0.48c-0.065 0.152-0.159 0.29-0.278 0.405-0.113 0.11-0.246 0.197-0.392 0.255s-0.302 0.088-0.46 0.086c-0.157-0.002-0.313-0.035-0.458-0.097s-0.276-0.152-0.386-0.265l-13.637-13.995c-0.239-0.246-0.374-0.575-0.374-0.918s0.134-0.673 0.374-0.918l13.637-13.989z"></path>
</symbol>

<symbol id="icon-doubleRightArrow" viewBox="0 0 28 32">
    <path fill="#872330" style="fill: var(--color1, #872330)" d="M13.469 31.621c-0.119 0.12-0.262 0.215-0.419 0.281s-0.327 0.099-0.498 0.099-0.34-0.034-0.498-0.099c-0.158-0.065-0.3-0.161-0.419-0.281-0.245-0.246-0.381-0.576-0.381-0.919s0.137-0.673 0.381-0.919l13.707-13.779-13.707-13.782c-0.123-0.124-0.221-0.27-0.286-0.431s-0.098-0.332-0.096-0.506c0.002-0.173 0.039-0.344 0.108-0.503s0.17-0.303 0.297-0.424c0.12-0.115 0.263-0.206 0.419-0.267s0.323-0.092 0.492-0.090c0.168 0.002 0.334 0.037 0.489 0.102s0.295 0.159 0.412 0.278l14.577 14.661c0.256 0.257 0.399 0.603 0.399 0.962s-0.143 0.705-0.399 0.962l-14.577 14.656zM2.217 31.621c-0.119 0.12-0.262 0.215-0.419 0.281s-0.327 0.099-0.498 0.099-0.34-0.034-0.498-0.099c-0.157-0.065-0.3-0.161-0.419-0.281-0.244-0.246-0.381-0.576-0.381-0.919s0.137-0.673 0.381-0.919l13.707-13.779-13.707-13.782c-0.123-0.124-0.221-0.27-0.286-0.431s-0.098-0.332-0.096-0.506c0.002-0.173 0.039-0.344 0.108-0.503s0.17-0.303 0.297-0.424c0.12-0.115 0.263-0.206 0.419-0.267s0.323-0.092 0.492-0.090c0.168 0.002 0.334 0.037 0.489 0.102s0.295 0.159 0.412 0.278l14.577 14.661c0.256 0.257 0.399 0.603 0.399 0.962s-0.143 0.705-0.399 0.962l-14.577 14.656z"></path>
</symbol>   

<!-- social Icon Telegram / facebook / twitter / mailer / linkedin / tiktok / youTube / whatsapp / calendly -->
<symbol id="icon-telegram" viewBox="0 0 28 28">
<path d="M18.578 20.422l2.297-10.828c0.203-0.953-0.344-1.328-0.969-1.094l-13.5 5.203c-0.922 0.359-0.906 0.875-0.156 1.109l3.453 1.078 8.016-5.047c0.375-0.25 0.719-0.109 0.438 0.141l-6.484 5.859-0.25 3.563c0.359 0 0.516-0.156 0.703-0.344l1.687-1.625 3.5 2.578c0.641 0.359 1.094 0.172 1.266-0.594zM28 14c0 7.734-6.266 14-14 14s-14-6.266-14-14 6.266-14 14-14 14 6.266 14 14z"></path>
</symbol>

<symbol id="icon-twitter" viewBox="0 0 32 32">
<path d="M32 7.075c-1.175 0.525-2.444 0.875-3.769 1.031 1.356-0.813 2.394-2.1 2.887-3.631-1.269 0.75-2.675 1.3-4.169 1.594-1.2-1.275-2.906-2.069-4.794-2.069-3.625 0-6.563 2.938-6.563 6.563 0 0.512 0.056 1.012 0.169 1.494-5.456-0.275-10.294-2.888-13.531-6.862-0.563 0.969-0.887 2.1-0.887 3.3 0 2.275 1.156 4.287 2.919 5.463-1.075-0.031-2.087-0.331-2.975-0.819 0 0.025 0 0.056 0 0.081 0 3.181 2.263 5.838 5.269 6.437-0.55 0.15-1.131 0.231-1.731 0.231-0.425 0-0.831-0.044-1.237-0.119 0.838 2.606 3.263 4.506 6.131 4.563-2.25 1.762-5.075 2.813-8.156 2.813-0.531 0-1.050-0.031-1.569-0.094 2.913 1.869 6.362 2.95 10.069 2.95 12.075 0 18.681-10.006 18.681-18.681 0-0.287-0.006-0.569-0.019-0.85 1.281-0.919 2.394-2.075 3.275-3.394z"></path>
</symbol>

<symbol id="icon-twitter2" viewBox="0 0 32 32">
<path d="M24.325 3h4.411l-9.636 11.013 11.336 14.987h-8.876l-6.952-9.089-7.955 9.089h-4.413l10.307-11.78-10.875-14.22h9.101l6.284 8.308zM22.777 26.36h2.444l-15.776-20.859h-2.623z"></path>
</symbol>

<symbol id="icon-facebook" viewBox="0 0 32 32">
<path d="M19 6h5v-6h-5c-3.86 0-7 3.14-7 7v3h-4v6h4v16h6v-16h5l1-6h-6v-3c0-0.542 0.458-1 1-1z"></path>
</symbol>

<symbol id="icon-instagram" viewBox="0 0 32 32">
<path d="M16 2.881c4.275 0 4.781 0.019 6.462 0.094 1.563 0.069 2.406 0.331 2.969 0.55 0.744 0.288 1.281 0.638 1.837 1.194 0.563 0.563 0.906 1.094 1.2 1.838 0.219 0.563 0.481 1.412 0.55 2.969 0.075 1.688 0.094 2.194 0.094 6.463s-0.019 4.781-0.094 6.463c-0.069 1.563-0.331 2.406-0.55 2.969-0.288 0.744-0.637 1.281-1.194 1.837-0.563 0.563-1.094 0.906-1.837 1.2-0.563 0.219-1.413 0.481-2.969 0.55-1.688 0.075-2.194 0.094-6.463 0.094s-4.781-0.019-6.463-0.094c-1.563-0.069-2.406-0.331-2.969-0.55-0.744-0.288-1.281-0.637-1.838-1.194-0.563-0.563-0.906-1.094-1.2-1.837-0.219-0.563-0.481-1.413-0.55-2.969-0.075-1.688-0.094-2.194-0.094-6.463s0.019-4.781 0.094-6.463c0.069-1.563 0.331-2.406 0.55-2.969 0.288-0.744 0.638-1.281 1.194-1.838 0.563-0.563 1.094-0.906 1.838-1.2 0.563-0.219 1.412-0.481 2.969-0.55 1.681-0.075 2.188-0.094 6.463-0.094zM16 0c-4.344 0-4.887 0.019-6.594 0.094-1.7 0.075-2.869 0.35-3.881 0.744-1.056 0.412-1.95 0.956-2.837 1.85-0.894 0.888-1.438 1.781-1.85 2.831-0.394 1.019-0.669 2.181-0.744 3.881-0.075 1.713-0.094 2.256-0.094 6.6s0.019 4.887 0.094 6.594c0.075 1.7 0.35 2.869 0.744 3.881 0.413 1.056 0.956 1.95 1.85 2.837 0.887 0.887 1.781 1.438 2.831 1.844 1.019 0.394 2.181 0.669 3.881 0.744 1.706 0.075 2.25 0.094 6.594 0.094s4.888-0.019 6.594-0.094c1.7-0.075 2.869-0.35 3.881-0.744 1.050-0.406 1.944-0.956 2.831-1.844s1.438-1.781 1.844-2.831c0.394-1.019 0.669-2.181 0.744-3.881 0.075-1.706 0.094-2.25 0.094-6.594s-0.019-4.887-0.094-6.594c-0.075-1.7-0.35-2.869-0.744-3.881-0.394-1.063-0.938-1.956-1.831-2.844-0.887-0.887-1.781-1.438-2.831-1.844-1.019-0.394-2.181-0.669-3.881-0.744-1.712-0.081-2.256-0.1-6.6-0.1v0z"></path>
<path d="M16 7.781c-4.537 0-8.219 3.681-8.219 8.219s3.681 8.219 8.219 8.219 8.219-3.681 8.219-8.219c0-4.537-3.681-8.219-8.219-8.219zM16 21.331c-2.944 0-5.331-2.387-5.331-5.331s2.387-5.331 5.331-5.331c2.944 0 5.331 2.387 5.331 5.331s-2.387 5.331-5.331 5.331z"></path>
<path d="M26.462 7.456c0 1.060-0.859 1.919-1.919 1.919s-1.919-0.859-1.919-1.919c0-1.060 0.859-1.919 1.919-1.919s1.919 0.859 1.919 1.919z"></path>
</symbol>

<symbol id="icon-linkedin" viewBox="0 0 32 32">
    <path d="M31.992 32v-0.001h0.008v-11.736c0-5.741-1.236-10.164-7.948-10.164-3.227 0-5.392 1.771-6.276 3.449h-0.093v-2.913h-6.364v21.364h6.627v-10.579c0-2.785 0.528-5.479 3.977-5.479 3.399 0 3.449 3.179 3.449 5.657v10.401h6.62z"></path>
    <path d="M0.528 10.636h6.635v21.364h-6.635v-21.364z"></path>
    <path d="M3.843 0c-2.121 0-3.843 1.721-3.843 3.843s1.721 3.879 3.843 3.879c2.121 0 3.843-1.757 3.843-3.879-0.001-2.121-1.723-3.843-3.843-3.843v0z"></path>
</symbol>

<symbol id="icon-tiktok" viewBox="0 0 32 32">
    <path d="M16.707 0.027c1.747-0.027 3.48-0.013 5.213-0.027 0.107 2.040 0.84 4.12 2.333 5.56 1.493 1.48 3.6 2.16 5.653 2.387v5.373c-1.92-0.067-3.853-0.467-5.6-1.293-0.76-0.347-1.467-0.787-2.16-1.24-0.013 3.893 0.013 7.787-0.027 11.667-0.107 1.867-0.72 3.72-1.8 5.253-1.747 2.56-4.773 4.227-7.88 4.28-1.907 0.107-3.813-0.413-5.44-1.373-2.693-1.587-4.587-4.493-4.867-7.613-0.027-0.667-0.040-1.333-0.013-1.987 0.24-2.533 1.493-4.96 3.44-6.613 2.213-1.92 5.307-2.84 8.2-2.293 0.027 1.973-0.053 3.947-0.053 5.92-1.32-0.427-2.867-0.307-4.027 0.493-0.84 0.547-1.48 1.387-1.813 2.333-0.28 0.68-0.2 1.427-0.187 2.147 0.32 2.187 2.427 4.027 4.667 3.827 1.493-0.013 2.92-0.88 3.693-2.147 0.253-0.44 0.533-0.893 0.547-1.413 0.133-2.387 0.080-4.76 0.093-7.147 0.013-5.373-0.013-10.733 0.027-16.093z"></path>
</symbol>

<symbol id="icon-youtube" viewBox="0 0 32 32">
    <path d="M31.681 9.6c0 0-0.313-2.206-1.275-3.175-1.219-1.275-2.581-1.281-3.206-1.356-4.475-0.325-11.194-0.325-11.194-0.325h-0.012c0 0-6.719 0-11.194 0.325-0.625 0.075-1.987 0.081-3.206 1.356-0.963 0.969-1.269 3.175-1.269 3.175s-0.319 2.588-0.319 5.181v2.425c0 2.587 0.319 5.181 0.319 5.181s0.313 2.206 1.269 3.175c1.219 1.275 2.819 1.231 3.531 1.369 2.563 0.244 10.881 0.319 10.881 0.319s6.725-0.012 11.2-0.331c0.625-0.075 1.988-0.081 3.206-1.356 0.962-0.969 1.275-3.175 1.275-3.175s0.319-2.587 0.319-5.181v-2.425c-0.006-2.588-0.325-5.181-0.325-5.181zM12.694 20.15v-8.994l8.644 4.513-8.644 4.481z"></path>
</symbol>

<symbol id="icon-whatsapp" viewBox="0 0 32 32">
    <path d="M27.281 4.65c-2.994-3-6.975-4.65-11.219-4.65-8.738 0-15.85 7.112-15.85 15.856 0 2.794 0.731 5.525 2.119 7.925l-2.25 8.219 8.406-2.206c2.319 1.262 4.925 1.931 7.575 1.931h0.006c0 0 0 0 0 0 8.738 0 15.856-7.113 15.856-15.856 0-4.238-1.65-8.219-4.644-11.219zM16.069 29.050v0c-2.369 0-4.688-0.637-6.713-1.837l-0.481-0.288-4.987 1.306 1.331-4.863-0.313-0.5c-1.325-2.094-2.019-4.519-2.019-7.012 0-7.269 5.912-13.181 13.188-13.181 3.519 0 6.831 1.375 9.319 3.862 2.488 2.494 3.856 5.8 3.856 9.325-0.006 7.275-5.919 13.188-13.181 13.188zM23.294 19.175c-0.394-0.2-2.344-1.156-2.706-1.288s-0.625-0.2-0.894 0.2c-0.262 0.394-1.025 1.288-1.256 1.556-0.231 0.262-0.462 0.3-0.856 0.1s-1.675-0.619-3.188-1.969c-1.175-1.050-1.975-2.35-2.206-2.744s-0.025-0.613 0.175-0.806c0.181-0.175 0.394-0.463 0.594-0.694s0.262-0.394 0.394-0.662c0.131-0.262 0.069-0.494-0.031-0.694s-0.894-2.15-1.219-2.944c-0.319-0.775-0.65-0.669-0.894-0.681-0.231-0.012-0.494-0.012-0.756-0.012s-0.694 0.1-1.056 0.494c-0.363 0.394-1.387 1.356-1.387 3.306s1.419 3.831 1.619 4.1c0.2 0.262 2.794 4.269 6.769 5.981 0.944 0.406 1.681 0.65 2.256 0.837 0.95 0.3 1.813 0.256 2.494 0.156 0.762-0.113 2.344-0.956 2.675-1.881s0.331-1.719 0.231-1.881c-0.094-0.175-0.356-0.275-0.756-0.475z"></path>
</symbol>

<symbol id="icon-calendly" viewBox="0 0 32 32">
    <path d="M26.215 14.632c-0.465 0.085-0.937 0.128-1.41 0.128-2.754 0-3.91-1.025-4.947-1.944-0.844-0.748-1.61-1.427-3.093-1.427h-1.233c-2.27 0-3.761 1.621-3.761 3.695v1.69c0 2.076 1.491 3.697 3.761 3.697h1.233c1.484 0 2.249-0.679 3.093-1.427 1.037-0.92 2.194-1.945 4.947-1.945 0.116 0 0.23-0.001 0.345-0.003 0.357-0.004 0.714-0.008 1.088 0.026zM26.238 17.122c1.030 0.35 2.251 0.896 2.85 1.336 0.817 0.606 0.659 1.288 0.535 1.694-1.011 3.279-3.166 6.084-6.069 7.91-2.904 1.824-6.368 2.547-9.76 2.037-3.392-0.512-6.487-2.223-8.725-4.824-2.238-2.598-3.469-5.916-3.469-9.346s1.231-6.748 3.469-9.346c2.238-2.601 5.333-4.311 8.725-4.823 3.392-0.51 6.856 0.213 9.76 2.037 2.903 1.826 5.058 4.631 6.069 7.91 0.124 0.405 0.282 1.088-0.535 1.694-0.851 0.623-1.833 1.043-2.869 1.231v-0.023h-0.004c-0.090-0.497-0.228-0.986-0.416-1.455 0.913-0.271 1.935-0.655 2.377-0.975-0.004-0.006-0.009-0.015-0.009-0.021-0.902-2.925-2.825-5.427-5.414-7.055-2.592-1.628-5.681-2.27-8.706-1.813-3.027 0.457-5.788 1.982-7.785 4.303-1.995 2.319-3.093 5.278-3.093 8.337s1.099 6.018 3.093 8.337c1.997 2.321 4.757 3.846 7.785 4.303 3.025 0.456 6.114-0.186 8.706-1.813 2.59-1.628 4.512-4.13 5.414-7.055 0.004-0.006 0.009-0.015 0.009-0.021-0.702-0.51-1.515-0.845-2.372-0.977h-0.002c-0 0-0.001 0.001-0.001 0.001 0.17-0.428 0.411-1.466 0.437-1.578 0-0.002 0.001-0.002 0.001-0.004 0 0 0-0 0 0z"></path>
    <path d="M25.799 18.707c-0.326-0.053-0.659-0.079-0.99-0.079-2.164 0-2.983 0.723-3.922 1.551l-0.010 0.008-0.003 0.003c-0.91 0.806-2.043 1.809-4.104 1.809h-1.233c-1.491 0-2.846-0.542-3.816-1.523-0.947-0.96-1.47-2.274-1.47-3.699v-1.685c0-1.425 0.523-2.739 1.47-3.699 0.969-0.981 2.325-1.523 3.816-1.523h1.233c2.063 0 3.196 1.003 4.107 1.811l0.001 0.001c0.943 0.836 1.758 1.559 3.931 1.559 0.333 0 0.664-0.030 0.99-0.083v-0.002l-0.009-0.017c-0.13-0.322-0.282-0.638-0.456-0.939l-1.453-2.517c-0.655-1.133-1.596-2.076-2.731-2.731s-2.421-1.001-3.731-1.001h-2.908c-1.31 0-2.596 0.346-3.731 1.001-1.133 0.655-2.076 1.598-2.731 2.731l-1.453 2.517c-0.655 1.135-1.001 2.421-1.001 3.731s0.346 2.596 1.001 3.731l1.453 2.517c0.655 1.133 1.598 2.076 2.731 2.731 1.135 0.655 2.421 1.001 3.731 1.001h2.908c1.31 0 2.596-0.346 3.731-1.001s2.076-1.598 2.731-2.731l1.453-2.513c0.175-0.301 0.326-0.617 0.456-0.939l0.009-0.019z"></path>
</symbol>

<!-- iconClose -->
<symbol id="icon-close" viewBox="0 0 32 32">
<path d="M25.707 24.292c0.093 0.093 0.167 0.203 0.217 0.325s0.076 0.252 0.076 0.383c0 0.131-0.026 0.261-0.076 0.383s-0.124 0.232-0.217 0.325c-0.093 0.093-0.203 0.167-0.325 0.217s-0.252 0.076-0.383 0.076c-0.131 0-0.262-0.026-0.383-0.076s-0.232-0.124-0.325-0.217l-8.292-8.294-8.293 8.294c-0.188 0.188-0.442 0.293-0.707 0.293s-0.52-0.105-0.707-0.293c-0.188-0.188-0.293-0.442-0.293-0.707s0.105-0.52 0.293-0.708l8.294-8.292-8.294-8.293c-0.188-0.188-0.293-0.442-0.293-0.707s0.105-0.52 0.293-0.707c0.188-0.188 0.442-0.293 0.707-0.293s0.52 0.105 0.707 0.293l8.293 8.294 8.292-8.294c0.188-0.188 0.442-0.293 0.708-0.293s0.52 0.105 0.707 0.293c0.188 0.188 0.293 0.442 0.293 0.707s-0.105 0.52-0.293 0.707l-8.294 8.293 8.294 8.292z"></path>
</symbol>

<!-- burgerMenu -->
<symbol id="icon-burger-menu" viewBox="0 0 32 32">
    <path d="M4.799 8.001c0-0.424 0.169-0.831 0.469-1.131s0.707-0.469 1.131-0.469h19.2c0.424 0 0.831 0.169 1.131 0.469s0.469 0.707 0.469 1.131-0.169 0.831-0.469 1.131c-0.3 0.3-0.707 0.469-1.131 0.469h-19.2c-0.424 0-0.831-0.169-1.131-0.469s-0.469-0.707-0.469-1.131z"></path>
    <path d="M4.799 16.001c0-0.424 0.169-0.831 0.469-1.131s0.707-0.469 1.131-0.469h19.2c0.424 0 0.831 0.169 1.131 0.469s0.469 0.707 0.469 1.131c0 0.424-0.169 0.831-0.469 1.131s-0.707 0.469-1.131 0.469h-19.2c-0.424 0-0.831-0.169-1.131-0.469s-0.469-0.707-0.469-1.131z"></path>
    <path d="M4.799 24.001c0-0.424 0.169-0.831 0.469-1.131s0.707-0.469 1.131-0.469h19.2c0.424 0 0.831 0.169 1.131 0.469s0.469 0.707 0.469 1.131c0 0.424-0.169 0.831-0.469 1.131s-0.707 0.469-1.131 0.469h-19.2c-0.424 0-0.831-0.169-1.131-0.469s-0.469-0.707-0.469-1.131z"></path>
</symbol>

<!-- Star -->
<symbol id="icon-star" viewBox="0 0 32 32">
    <path d="M32 12.408l-11.056-1.607-4.944-10.018-4.944 10.018-11.056 1.607 8 7.798-1.889 11.011 9.889-5.199 9.889 5.199-1.889-11.011 8-7.798zM16 23.547l-6.983 3.671 1.334-7.776-5.65-5.507 7.808-1.134 3.492-7.075 3.492 7.075 7.807 1.134-5.65 5.507 1.334 7.776-6.983-3.671z"></path>
</symbol>
<symbol id="icon-star-fill" viewBox="0 0 32 32">
    <path d="M22.626 19.941l-0.010-0.006-0.066 0.053 0.094 0.014c0 0 4.052 10.204 3.203 11.683-1.669 1.265-8.842-5.595-9.774-6.501l0.006 0.035c0 0-8.059 8.048-9.925 6.609-1.118-0.812 2.947-12.030 2.947-12.030l0.019-0.003c-1.493-0.853-9.693-6.646-9.087-8.731 0.018-1.255 11.414-1.168 11.777-1.119 0.044-0.255 1.997-9.945 4.191-9.945 2.205 0 4.1 9.918 4.123 10.056h0.006l0.002 0.010 0.025-0.053c0 0 11.793-0.181 11.811 1.051 0.668 2.293-9.342 8.877-9.342 8.877z"></path>
</symbol>

<!-- geometry -->
<symbol id="icon-squad" viewBox="0 0 32 32">
    <path d="M25.799 18.707c-0.326-0.053-0.659-0.079-0.99-0.079-2.164 0-2.983 0.723-3.922 1.551l-0.010 0.008-0.003 0.003c-0.91 0.806-2.043 1.809-4.104 1.809h-1.233c-1.491 0-2.846-0.542-3.816-1.523-0.947-0.96-1.47-2.274-1.47-3.699v-1.685c0-1.425 0.523-2.739 1.47-3.699 0.969-0.981 2.325-1.523 3.816-1.523h1.233c2.063 0 3.196 1.003 4.107 1.811l0.001 0.001c0.943 0.836 1.758 1.559 3.931 1.559 0.333 0 0.664-0.030 0.99-0.083v-0.002l-0.009-0.017c-0.13-0.322-0.282-0.638-0.456-0.939l-1.453-2.517c-0.655-1.133-1.596-2.076-2.731-2.731s-2.421-1.001-3.731-1.001h-2.908c-1.31 0-2.596 0.346-3.731 1.001-1.133 0.655-2.076 1.598-2.731 2.731l-1.453 2.517c-0.655 1.135-1.001 2.421-1.001 3.731s0.346 2.596 1.001 3.731l1.453 2.517c0.655 1.133 1.598 2.076 2.731 2.731 1.135 0.655 2.421 1.001 3.731 1.001h2.908c1.31 0 2.596-0.346 3.731-1.001s2.076-1.598 2.731-2.731l1.453-2.513c0.175-0.301 0.326-0.617 0.456-0.939l0.009-0.019z"></path>
</symbol>

<symbol id="icon-spiral" viewBox="0 0 35 32">
<path fill="none" stroke="#bdc3af" style="stroke: var(--color1, #bdc3af)" stroke-linejoin="miter" stroke-linecap="round" stroke-miterlimit="4" stroke-width="1.6842" d="M23.888 17.292c-4.295 0-6.139-2.006-5.878-7.154 0.115-2.272 3.721-1.431 5.079-1.431 3.016 0 3.475 0.108 5.333 2.822 7.271 10.62-13.376 14.54-13.678 3.299-0.168-6.276-0.011-9.27 5.732-11.844 8.581-3.845 13.206 1.17 13.206 10.731 0 10.719-9.495 20.069-19.302 15.342-8.197-3.951-12.698-12.253-12.698-21.781"></path>
</symbol>

<symbol id="icon-circle" viewBox="0 0 36 32">
<path fill="none" stroke="#872330" style="stroke: var(--color1, #872330)" stroke-linejoin="miter" stroke-linecap="round" stroke-miterlimit="4" stroke-width="2.6667" d="M24.463 17.324c-4.474 0-6.394-2.055-6.122-7.329 0.12-2.327 3.876-1.466 5.291-1.466 3.142 0 3.62 0.111 5.555 2.891 7.574 10.881-13.933 14.896-14.248 3.38-0.176-6.43-0.012-9.497 5.971-12.135 8.938-3.94 13.757 1.199 13.757 10.994 0 10.982-9.89 20.561-20.106 15.718-8.538-4.048-13.227-12.554-13.227-22.314"></path>
</symbol>

<!-- Camera / Photo / Phone -->
<symbol id="icon-camera" viewBox="0 0 32 32">
    <path d="M21 17c0 1.326-0.527 2.598-1.464 3.536s-2.209 1.464-3.536 1.464-2.598-0.527-3.536-1.464c-0.938-0.938-1.464-2.21-1.464-3.536s0.527-2.598 1.464-3.536c0.938-0.938 2.209-1.464 3.536-1.464s2.598 0.527 3.536 1.464c0.938 0.938 1.464 2.209 1.464 3.536z"></path>
    <path d="M4 8c-1.061 0-2.078 0.421-2.828 1.172s-1.172 1.768-1.172 2.828v12c0 1.061 0.421 2.078 1.172 2.828s1.768 1.172 2.828 1.172h24c1.061 0 2.078-0.421 2.828-1.172s1.172-1.768 1.172-2.828v-12c0-1.061-0.421-2.078-1.172-2.828s-1.768-1.172-2.828-1.172h-2.344c-1.061-0-2.078-0.422-2.828-1.172l-1.656-1.656c-0.75-0.75-1.767-1.172-2.828-1.172h-4.688c-1.061 0-2.078 0.422-2.828 1.172l-1.656 1.656c-0.75 0.75-1.767 1.172-2.828 1.172h-2.344zM5 12c-0.265 0-0.52-0.105-0.707-0.293s-0.293-0.442-0.293-0.707c0-0.265 0.105-0.52 0.293-0.707s0.442-0.293 0.707-0.293c0.265 0 0.52 0.105 0.707 0.293s0.293 0.442 0.293 0.707c0 0.265-0.105 0.52-0.293 0.707s-0.442 0.293-0.707 0.293zM23 17c0 1.857-0.737 3.637-2.050 4.95s-3.093 2.050-4.95 2.050c-1.857 0-3.637-0.737-4.95-2.050s-2.050-3.093-2.050-4.95c0-1.857 0.738-3.637 2.050-4.95s3.093-2.050 4.95-2.050c1.857 0 3.637 0.738 4.95 2.050s2.050 3.093 2.050 4.95z"></path>
</symbol>

<symbol id="icon-phone" viewBox="0 0 24 32">
    <path d="M19.635 18.487l-2.451-0.28c-0.589-0.067-1.167 0.135-1.582 0.55l-1.775 1.775c-2.731-1.389-4.969-3.618-6.359-6.359l1.785-1.785c0.415-0.415 0.618-0.994 0.55-1.582l-0.28-2.432c-0.116-0.975-0.936-1.708-1.92-1.708h-1.669c-1.090 0-1.997 0.907-1.93 1.997 0.511 8.24 7.102 14.821 15.332 15.332 1.090 0.068 1.997-0.839 1.997-1.93v-1.669c0.010-0.975-0.724-1.795-1.698-1.911z"></path>
</symbol>

<!-- mail / send -->
<symbol id="icon-mail" viewBox="0 0 24 32">
    <path d="M20 8h-16c-1.1 0-1.99 0.9-1.99 2l-0.010 12c0 1.1 0.9 2 2 2h16c1.1 0 2-0.9 2-2v-12c0-1.1-0.9-2-2-2zM19.6 12.25l-7.070 4.42c-0.32 0.2-0.74 0.2-1.060 0l-7.070-4.42c-0.25-0.16-0.4-0.43-0.4-0.72 0-0.67 0.73-1.070 1.3-0.72l6.7 4.19 6.7-4.19c0.57-0.35 1.3 0.050 1.3 0.72 0 0.29-0.15 0.56-0.4 0.72z"></path>
</symbol>

<symbol id="icon-send" viewBox="0 0 32 32">
    <path d="M32 2.667l-32 15 10.227 3.156 15.773-12.323-11.998 13.488 0.010 0.003-0.012-0.003v7.345l5.735-5.576 7.265 2.242 5-23.333z"></path>
</symbol>

<!-- checkbox -->
<symbol id="icon-checkbox" viewBox="0 0 20 20">
    <path d="M0 11l2-2 5 5 11-11 2 2-13 13z"></path>
</symbol>

<!-- clock -->
<symbol id="icon-clock" viewBox="0 0 24 24">
    <path d="M23 12c0-3.037-1.232-5.789-3.222-7.778s-4.741-3.222-7.778-3.222-5.789 1.232-7.778 3.222-3.222 4.741-3.222 7.778 1.232 5.789 3.222 7.778 4.741 3.222 7.778 3.222 5.789-1.232 7.778-3.222 3.222-4.741 3.222-7.778zM21 12c0 2.486-1.006 4.734-2.636 6.364s-3.878 2.636-6.364 2.636-4.734-1.006-6.364-2.636-2.636-3.878-2.636-6.364 1.006-4.734 2.636-6.364 3.878-2.636 6.364-2.636 4.734 1.006 6.364 2.636 2.636 3.878 2.636 6.364zM11 6v6c0 0.389 0.222 0.727 0.553 0.894l4 2c0.494 0.247 1.095 0.047 1.342-0.447s0.047-1.095-0.447-1.342l-3.448-1.723v-5.382c0-0.552-0.448-1-1-1s-1 0.448-1 1z"></path>
</symbol>

<!-- payments -->
<symbol id="icon-revolut" viewBox="0 0 32 32">
    <path stroke-linejoin="round" stroke-linecap="butt" stroke-miterlimit="4" stroke-width="3.122" d="M16.5 3.667c-2.236 0-4.927 0.325-6.346 0.522-0.587 0.081-1.038 0.549-1.111 1.137l-2.52 20.158c-0.192 1.539 0.966 2.945 2.515 2.893 1.318-0.044 2.457-0.2 3.489-0.52 0.842-0.261 1.377-1.045 1.496-1.918l0.81-5.938 2.365 6.57c0.381 1.058 1.386 1.782 2.509 1.715 1.708-0.102 3.018-0.382 4.631-0.997 0.784-0.299 1.044-1.26 0.612-1.979-1.643-2.732-2.256-5.107-3.117-7.976 0 0 3.667-2.333 3.667-6.333 0-6-5-7.333-9-7.333z"></path>
    <path d="M14.322 14.531l0.727-5.333c0.068-0.496 0.492-0.873 0.99-0.831 2.651 0.222 3.522 1.516 3.295 3.632-0.19 1.776-1.225 3.289-4.022 3.606-0.602 0.068-1.072-0.474-0.99-1.074z"></path>
</symbol>

<symbol id="icon-A" viewBox="0 0 47 32">
<path d="M36.383 16.718c0.46-2.983 1.21-5.812 2.25-8.489 1.040-2.693 2.352-4.926 3.938-6.699-2.182 0.511-3.997 1.313-5.446 2.403-1.432 1.074-2.659 2.344-3.682 3.81-0.426 0.631-1.065 1.636-1.918 3.017-0.852 1.364-1.815 2.923-2.889 4.679l7.747 1.278zM26.591 17.076c-1.653 0-3.162-0.026-4.526-0.077-1.347-0.068-2.753-0.145-4.219-0.23-2.079 0-3.835 0.111-5.267 0.332s-2.761 0.614-3.989 1.176c-1.176 0.358-2.301 0.793-3.375 1.304s-2.011 1.151-2.813 1.918-1.202 1.611-1.202 2.531c0 0.699 0.972 1.151 2.915 1.355 1.943 0.188 4.253 0.281 6.929 0.281 1.006 0 1.952-0.026 2.838-0.077s1.73-0.136 2.531-0.256c1.551-0.205 2.957-0.614 4.219-1.227 1.261-0.631 2.386-1.5 3.375-2.608 1.006-1.125 1.866-2.599 2.582-4.423zM39.273 17.076l6.545 0.409c-1.006 0.648-1.875 1.108-2.608 1.381s-1.577 0.409-2.531 0.409c-0.511 0-1.117-0.051-1.815-0.153-1.807 5.199-3.051 8.574-3.733 10.125-0.75 1.756-1.551 2.634-2.403 2.634l-0.409-0.102c0.324-0.75 0.69-1.747 1.099-2.991l0.972-3.349 0.895-3.656c0.102-0.46 0.213-0.963 0.332-1.508 0.136-0.563 0.273-1.091 0.409-1.585l-8.233-1.202c-0.614 1.994-1.517 3.699-2.71 5.114-1.193 1.398-2.557 2.523-4.091 3.375-1.517 0.852-3.162 1.474-4.935 1.866s-3.46 0.588-5.063 0.588c-1.977 0-3.801-0.204-5.472-0.614-1.653-0.426-2.991-0.98-4.014-1.662-1.006-0.682-1.509-1.389-1.509-2.122 0.256-1.636 1.048-3.017 2.378-4.142 1.33-1.142 3.017-2.054 5.063-2.736s4.312-1.168 6.801-1.457c2.506-0.307 5.020-0.46 7.543-0.46 2.369 0 4.236 0.068 5.599 0.205 1.21-2.847 2.31-5.139 3.298-6.878s2.122-3.222 3.401-4.449c1.295-1.244 2.906-2.182 4.832-2.813 1.943-0.648 4.244-0.972 6.903-0.972-1.295 1.142-2.361 2.599-3.196 4.372s-1.526 3.724-2.071 5.855c-0.222 0.903-0.443 1.918-0.665 3.043-0.222 1.108-0.426 2.267-0.614 3.477z"></path>
</symbol>

<!-- date -->
<symbol id="icon-calendar" viewBox="0 0 32 32">
<path d="M2.33325 13.9998C2.33325 9.60034 2.33325 7.4 3.70059 6.03384C5.06675 4.6665 7.26709 4.6665 11.6666 4.6665H16.3333C20.7328 4.6665 22.9331 4.6665 24.2993 6.03384C25.6666 7.4 25.6666 9.60034 25.6666 13.9998V16.3332C25.6666 20.7327 25.6666 22.933 24.2993 24.2992C22.9331 25.6665 20.7328 25.6665 16.3333 25.6665H11.6666C7.26709 25.6665 5.06675 25.6665 3.70059 24.2992C2.33325 22.933 2.33325 20.7327 2.33325 16.3332V13.9998Z" stroke="#F5F9FC"/>
<path d="M8.1665 4.6665V2.9165M19.8332 4.6665V2.9165M2.9165 10.4998H25.0832" stroke="#F5F9FC" stroke-linecap="round"/>
<path d="M21 19.8333C21 20.1428 20.8771 20.4395 20.6583 20.6583C20.4395 20.8771 20.1428 21 19.8333 21C19.5239 21 19.2272 20.8771 19.0084 20.6583C18.7896 20.4395 18.6667 20.1428 18.6667 19.8333C18.6667 19.5239 18.7896 19.2272 19.0084 19.0084C19.2272 18.7896 19.5239 18.6667 19.8333 18.6667C20.1428 18.6667 20.4395 18.7896 20.6583 19.0084C20.8771 19.2272 21 19.5239 21 19.8333ZM21 15.1667C21 15.4761 20.8771 15.7728 20.6583 15.9916C20.4395 16.2104 20.1428 16.3333 19.8333 16.3333C19.5239 16.3333 19.2272 16.2104 19.0084 15.9916C18.7896 15.7728 18.6667 15.4761 18.6667 15.1667C18.6667 14.8572 18.7896 14.5605 19.0084 14.3417C19.2272 14.1229 19.5239 14 19.8333 14C20.1428 14 20.4395 14.1229 20.6583 14.3417C20.8771 14.5605 21 14.8572 21 15.1667ZM15.1667 19.8333C15.1667 20.1428 15.0437 20.4395 14.825 20.6583C14.6062 20.8771 14.3094 21 14 21C13.6906 21 13.3938 20.8771 13.175 20.6583C12.9562 20.4395 12.8333 20.1428 12.8333 19.8333C12.8333 19.5239 12.9562 19.2272 13.175 19.0084C13.3938 18.7896 13.6906 18.6667 14 18.6667C14.3094 18.6667 14.6062 18.7896 14.825 19.0084C15.0437 19.2272 15.1667 19.5239 15.1667 19.8333ZM15.1667 15.1667C15.1667 15.4761 15.0437 15.7728 14.825 15.9916C14.6062 16.2104 14.3094 16.3333 14 16.3333C13.6906 16.3333 13.3938 16.2104 13.175 15.9916C12.9562 15.7728 12.8333 15.4761 12.8333 15.1667C12.8333 14.8572 12.9562 14.5605 13.175 14.3417C13.3938 14.1229 13.6906 14 14 14C14.3094 14 14.6062 14.1229 14.825 14.3417C15.0437 14.5605 15.1667 14.8572 15.1667 15.1667ZM9.33333 19.8333C9.33333 20.1428 9.21042 20.4395 8.99162 20.6583C8.77283 20.8771 8.47609 21 8.16667 21C7.85725 21 7.5605 20.8771 7.34171 20.6583C7.12292 20.4395 7 20.1428 7 19.8333C7 19.5239 7.12292 19.2272 7.34171 19.0084C7.5605 18.7896 7.85725 18.6667 8.16667 18.6667C8.47609 18.6667 8.77283 18.7896 8.99162 19.0084C9.21042 19.2272 9.33333 19.5239 9.33333 19.8333ZM9.33333 15.1667C9.33333 15.4761 9.21042 15.7728 8.99162 15.9916C8.77283 16.2104 8.47609 16.3333 8.16667 16.3333C7.85725 16.3333 7.5605 16.2104 7.34171 15.9916C7.12292 15.7728 7 15.4761 7 15.1667C7 14.8572 7.12292 14.5605 7.34171 14.3417C7.5605 14.1229 7.85725 14 8.16667 14C8.47609 14 8.77283 14.1229 8.99162 14.3417C9.21042 14.5605 9.33333 14.8572 9.33333 15.1667Z" fill="#F5F9FC"/>
</symbol>

<!-- map / mark -->
<symbol id="icon-location" viewBox="0 0 32 32">
    <path d="M16 0c-5.523 0-10 4.477-10 10 0 10 10 22 10 22s10-12 10-22c0-5.523-4.477-10-10-10zM16 16.125c-3.383 0-6.125-2.742-6.125-6.125s2.742-6.125 6.125-6.125 6.125 2.742 6.125 6.125-2.742 6.125-6.125 6.125zM12.125 10c0-2.14 1.735-3.875 3.875-3.875s3.875 1.735 3.875 3.875c0 2.14-1.735 3.875-3.875 3.875s-3.875-1.735-3.875-3.875z"></path>
</symbol>

<symbol id="icon-circle" viewBox="0 0 36 32">
<path fill="none" stroke="#872330" style="stroke: var(--color1, #872330)" stroke-linejoin="miter" stroke-linecap="round" stroke-miterlimit="4" stroke-width="2.6667" d="M24.463 17.324c-4.474 0-6.394-2.055-6.122-7.329 0.12-2.327 3.876-1.466 5.291-1.466 3.142 0 3.62 0.111 5.555 2.891 7.574 10.881-13.933 14.896-14.248 3.38-0.176-6.43-0.012-9.497 5.971-12.135 8.938-3.94 13.757 1.199 13.757 10.994 0 10.982-9.89 20.561-20.106 15.718-8.538-4.048-13.227-12.554-13.227-22.314"></path>
</symbol>


<symbol id="icon-instagramA" viewBox="0 0 32 32">
<path fill="none" stroke="#f5f9fc" style="stroke: var(--color1, #f5f9fc)" stroke-linejoin="miter" stroke-linecap="butt" stroke-miterlimit="10" stroke-width="1.2" d="M20.793 5.606h-9.587c-3.093 0-5.6 2.508-5.6 5.601v9.586c0 3.093 2.508 5.601 5.601 5.601h9.586c3.093 0 5.601-2.508 5.601-5.601v-9.586c0-3.093-2.507-5.601-5.6-5.601z"></path>
<path fill="none" stroke="#f5f9fc" style="stroke: var(--color1, #f5f9fc)" stroke-linejoin="miter" stroke-linecap="butt" stroke-miterlimit="10" stroke-width="1.2" d="M16 21.018c2.771 0 5.018-2.247 5.018-5.018s-2.246-5.018-5.018-5.018c-2.771 0-5.018 2.247-5.018 5.018s2.247 5.018 5.018 5.018z"></path>
<path fill="#f5f9fc" style="fill: var(--color1, #f5f9fc)" d="M22.093 10.982c0.594 0 1.075-0.481 1.075-1.075s-0.481-1.075-1.075-1.075c-0.594 0-1.075 0.481-1.075 1.075s0.481 1.075 1.075 1.075z"></path>
</symbol>
<symbol id="icon-instagramQ" viewBox="0 0 32 32">
<path fill="none" stroke="#5C5141" style="stroke: var(--color1, #5C5141)" stroke-linejoin="miter" stroke-linecap="butt" stroke-miterlimit="10" stroke-width="1.2" d="M20.793 5.606h-9.587c-3.093 0-5.6 2.508-5.6 5.601v9.586c0 3.093 2.508 5.601 5.601 5.601h9.586c3.093 0 5.601-2.508 5.601-5.601v-9.586c0-3.093-2.507-5.601-5.6-5.601z"></path>
<path fill="none" stroke="#5C5141" style="stroke: var(--color1, #5C5141)" stroke-linejoin="miter" stroke-linecap="butt" stroke-miterlimit="10" stroke-width="1.2" d="M16 21.018c2.771 0 5.018-2.247 5.018-5.018s-2.246-5.018-5.018-5.018c-2.771 0-5.018 2.247-5.018 5.018s2.247 5.018 5.018 5.018z"></path>
<path fill="#f5f9fc" style="fill: var(--color1, #f5f9fc)" d="M22.093 10.982c0.594 0 1.075-0.481 1.075-1.075s-0.481-1.075-1.075-1.075c-0.594 0-1.075 0.481-1.075 1.075s0.481 1.075 1.075 1.075z"></path>
</symbol>

<symbol id="icon-telega" viewBox="0 0 32 32">
<path fill="#f5f9fc" style="fill: var(--color1, #f5f9fc)" d="M29.284 3.653c-0.086-0.075-0.191-0.124-0.304-0.143s-0.228-0.007-0.334 0.034l-25.332 9.914c-0.258 0.1-0.477 0.282-0.623 0.517s-0.212 0.512-0.187 0.788c0.025 0.276 0.138 0.536 0.324 0.742s0.433 0.345 0.705 0.398l6.968 1.367v7.73c0 0.299 0.089 0.591 0.257 0.839s0.405 0.44 0.682 0.552c0.178 0.072 0.369 0.108 0.561 0.109 0.201-0 0.4-0.041 0.586-0.12s0.352-0.195 0.492-0.34l3.5-3.625 5.375 4.714c0.272 0.24 0.623 0.374 0.986 0.375 0.159-0.001 0.316-0.026 0.467-0.074 0.248-0.078 0.47-0.22 0.646-0.411s0.298-0.425 0.354-0.679l5.078-22.075c0.025-0.111 0.020-0.226-0.015-0.334s-0.099-0.204-0.185-0.279zM3.5 14.673c-0.007-0.060 0.006-0.122 0.039-0.173s0.081-0.091 0.139-0.11l21.831-8.544-14.625 10.481-7.157-1.405c-0.061-0.009-0.116-0.039-0.158-0.084s-0.066-0.104-0.069-0.165zM12.359 25.345c-0.069 0.071-0.158 0.12-0.255 0.141s-0.198 0.012-0.29-0.025-0.171-0.101-0.227-0.183c-0.056-0.082-0.086-0.179-0.087-0.278v-7.037l4.322 3.787-3.464 3.595zM23.431 26.113c-0.019 0.085-0.061 0.163-0.119 0.227s-0.134 0.112-0.216 0.138-0.171 0.031-0.257 0.012c-0.085-0.018-0.164-0.058-0.229-0.117l-10.806-9.476 16.462-11.797-4.835 21.013z"></path>
</symbol>
<symbol id="icon-telegaQ" viewBox="0 0 32 32">
<path fill="#5C5141" style="fill: var(--color1, #5C5141)" d="M29.284 3.653c-0.086-0.075-0.191-0.124-0.304-0.143s-0.228-0.007-0.334 0.034l-25.332 9.914c-0.258 0.1-0.477 0.282-0.623 0.517s-0.212 0.512-0.187 0.788c0.025 0.276 0.138 0.536 0.324 0.742s0.433 0.345 0.705 0.398l6.968 1.367v7.73c0 0.299 0.089 0.591 0.257 0.839s0.405 0.44 0.682 0.552c0.178 0.072 0.369 0.108 0.561 0.109 0.201-0 0.4-0.041 0.586-0.12s0.352-0.195 0.492-0.34l3.5-3.625 5.375 4.714c0.272 0.24 0.623 0.374 0.986 0.375 0.159-0.001 0.316-0.026 0.467-0.074 0.248-0.078 0.47-0.22 0.646-0.411s0.298-0.425 0.354-0.679l5.078-22.075c0.025-0.111 0.020-0.226-0.015-0.334s-0.099-0.204-0.185-0.279zM3.5 14.673c-0.007-0.060 0.006-0.122 0.039-0.173s0.081-0.091 0.139-0.11l21.831-8.544-14.625 10.481-7.157-1.405c-0.061-0.009-0.116-0.039-0.158-0.084s-0.066-0.104-0.069-0.165zM12.359 25.345c-0.069 0.071-0.158 0.12-0.255 0.141s-0.198 0.012-0.29-0.025-0.171-0.101-0.227-0.183c-0.056-0.082-0.086-0.179-0.087-0.278v-7.037l4.322 3.787-3.464 3.595zM23.431 26.113c-0.019 0.085-0.061 0.163-0.119 0.227s-0.134 0.112-0.216 0.138-0.171 0.031-0.257 0.012c-0.085-0.018-0.164-0.058-0.229-0.117l-10.806-9.476 16.462-11.797-4.835 21.013z"></path>
</symbol>

<symbol id="icon-ok" viewBox="0 0 32 32">
<path fill="#5c5141" style="fill: var(--color1, #5c5141)" d="M30.071 12.678c-0.593-0.622-1.215-1.266-1.482-1.897-0.244-0.593-0.256-1.412-0.27-2.284-0.021-1.334-0.043-2.844-1.012-3.814s-2.48-0.991-3.814-1.012c-0.871-0.013-1.693-0.025-2.283-0.27-0.631-0.261-1.274-0.879-1.896-1.474-0.99-0.95-2.013-1.926-3.322-1.926s-2.332 0.981-3.322 1.926c-0.622 0.593-1.265 1.215-1.896 1.482-0.593 0.244-1.412 0.256-2.283 0.27-1.333 0.021-2.843 0.043-3.813 1.012s-0.988 2.473-1.009 3.807c-0.013 0.871-0.025 1.694-0.27 2.284-0.261 0.631-0.879 1.274-1.474 1.897-0.95 0.99-1.926 2.014-1.926 3.322s0.981 2.332 1.926 3.322c0.593 0.622 1.215 1.266 1.482 1.897 0.244 0.593 0.256 1.412 0.27 2.284 0.021 1.334 0.043 2.844 1.012 3.814s2.48 0.991 3.814 1.012c0.871 0.013 1.693 0.025 2.283 0.27 0.631 0.261 1.274 0.879 1.896 1.474 0.99 0.95 2.013 1.926 3.322 1.926s2.332-0.981 3.322-1.926c0.622-0.593 1.265-1.215 1.896-1.482 0.593-0.244 1.412-0.256 2.283-0.27 1.333-0.021 2.843-0.043 3.814-1.012s0.991-2.481 1.012-3.814c0.013-0.871 0.025-1.694 0.27-2.284 0.261-0.631 0.879-1.274 1.474-1.897 0.95-0.99 1.926-2.014 1.926-3.322s-0.984-2.325-1.929-3.315zM29.215 18.501c-0.673 0.701-1.369 1.427-1.714 2.264-0.33 0.799-0.345 1.778-0.36 2.719-0.018 1.215-0.036 2.371-0.665 2.993s-1.778 0.648-2.993 0.665c-0.944 0.015-1.926 0.030-2.719 0.36-0.837 0.345-1.563 1.037-2.264 1.715-0.861 0.822-1.671 1.6-2.504 1.6s-1.643-0.778-2.501-1.6c-0.701-0.673-1.427-1.369-2.264-1.715-0.799-0.33-1.778-0.345-2.719-0.36-1.215-0.018-2.363-0.036-2.993-0.665s-0.647-1.778-0.665-2.993c-0.015-0.944-0.030-1.926-0.36-2.719-0.345-0.837-1.037-1.563-1.714-2.264-0.822-0.858-1.6-1.669-1.6-2.501s0.778-1.643 1.6-2.501c0.673-0.701 1.369-1.427 1.714-2.264 0.33-0.799 0.345-1.778 0.36-2.719 0.018-1.215 0.036-2.364 0.665-2.993s1.778-0.648 2.993-0.665c0.944-0.015 1.926-0.030 2.719-0.36 0.837-0.345 1.563-1.037 2.264-1.715 0.858-0.822 1.668-1.6 2.501-1.6s1.643 0.778 2.501 1.6c0.701 0.673 1.427 1.369 2.264 1.715 0.799 0.33 1.778 0.345 2.719 0.36 1.215 0.018 2.37 0.036 2.993 0.665s0.647 1.778 0.665 2.993c0.015 0.944 0.030 1.926 0.36 2.719 0.345 0.837 1.037 1.563 1.714 2.264 0.822 0.858 1.6 1.669 1.6 2.501s-0.778 1.643-1.6 2.501h0.003zM22.345 12.024c0.055 0.055 0.099 0.12 0.129 0.192s0.045 0.149 0.045 0.227-0.015 0.155-0.045 0.227c-0.030 0.072-0.074 0.137-0.129 0.192l-8.297 8.299c-0.055 0.055-0.12 0.099-0.192 0.129s-0.149 0.045-0.227 0.045c-0.078 0-0.155-0.015-0.227-0.045s-0.137-0.074-0.192-0.129l-3.556-3.556c-0.111-0.111-0.174-0.262-0.174-0.419s0.062-0.308 0.174-0.419c0.111-0.111 0.262-0.174 0.419-0.174s0.308 0.062 0.419 0.174l3.133 3.137 7.877-7.879c0.055-0.055 0.12-0.099 0.192-0.129s0.149-0.045 0.227-0.045c0.078 0 0.155 0.015 0.227 0.045s0.137 0.074 0.192 0.129h0.003z"></path>
</symbol>


</defs>
</svg>